<?xml version="1.0"?>
<svg xmlns="http://www.w3.org/2000/svg" height="684" width="452" xmlns:xlink="http://www.w3.org/1999/xlink">
<rect opacity=".7" height="684" width="452" fill="#0b0" ry="6"/>
<g stroke="#efe" stroke-width="3" fill="none">
<path d="m11.22 22.62v638.8h429.6v-638.8z"/>
<path d="m11.26 342h429.4"/>
<circle cy="342" cx="226" r="54.8"/>
<circle cy="342" cx="226" r="2"/>

<circle id="circle1" cx="301.5" cy="450" r="40" fill="green" visibility="visible" />
<circle id="circle2" cx="151.5" cy="450" r="40" fill="green" visibility="visible" />
<circle id="circle3" cx="301.5" cy="300" r="40" fill="blue" visibility="visible" />
<circle id="circle4" cx="151.5" cy="300" r="40" fill="blue" visibility="visible" />
<circle id="circle5" cx="226.5" cy="200" r="40" fill="red" visibility="visible" />

<text id="defender1Text" x="301.5" y="460" font-size="26" text-anchor="middle" visibility="visible"> Def1</text>
<text id="defender2Text" x="151.5" y="460" font-size="26" text-anchor="middle" visibility="visible">Def2</text>
<text id="midfield1Text" x="301.5" y="310" font-size="26" text-anchor="middle" visibility="visible">MF1</text>
<text id="midfield2Text" x="151.5" y="310" font-size="26" text-anchor="middle" visibility="visible">MF2</text>
<text id="cnforwardText" x="226.5" y="210" font-size="26" text-anchor="middle" visibility="visible">CF</text>



<g id="a">
<path d="m9.9 30.07c4.85 0 8.82-4 8.82-8.9m162.5 100.8a54.91 54.91 0 0 0 89.6 0m76.3-99.63v99.63h-242.2l.2-99.63m98.6.20v-15.6l44.6.003v15.6m-77.9-.20v34.4h111.2v-34.4m160.5 7.7c-4.9 0-8.8-4-8.8-8.9"/>
<circle cy="90" cx="226" r="2"/>
</g>
<use xlink:href="#a" transform="scale(1,-1)" y="-684"/>
</g>
</svg>