<?xml version="1.0" standalone="no"?>
<svg version="1.0" xmlns="http://www.w3.org/2000/svg"
 width="1024.000000pt" height="1024.000000pt" viewBox="0 0 1024.000000 1024.000000"
 preserveAspectRatio="xMidYMid meet">

  <rect width="1024" height="1024" fill="#FFA500" />

  <g transform="translate(0.000000,1024.000000) scale(0.100000,-0.100000)"
  fill="rgb(15, 15, 15)" stroke="none">

<path d="M0 6505 c0 -3420 1 -3739 16 -3768 9 -18 40 -63 69 -102 155 -208
409 -372 679 -440 l134 -34 64 62 c121 118 331 223 588 293 120 33 448 94 506
94 39 0 24 10 -59 38 -56 19 -96 25 -182 27 -82 1 -128 8 -180 24 -67 22 -205
103 -205 121 0 4 36 6 80 3 44 -3 80 -3 80 1 0 3 -15 29 -34 56 -42 61 -76
149 -76 195 0 43 10 44 34 4 32 -54 228 -242 306 -294 41 -27 77 -52 80 -55 6
-7 65 -25 125 -40 22 -5 65 -16 95 -25 60 -17 114 -20 92 -6 -18 11 -4 16 112
41 145 31 587 171 765 241 337 134 624 330 921 629 144 145 402 428 438 482
12 18 -145 -127 -183 -168 -22 -25 -176 -154 -287 -241 -205 -162 -327 -230
-603 -338 -229 -90 -356 -128 -560 -170 -165 -35 -197 -38 -385 -43 -313 -7
-517 31 -845 156 -82 31 -125 53 -235 120 -184 113 -305 223 -432 392 -76 101
-180 293 -193 355 -3 17 7 0 23 -37 38 -86 126 -218 190 -284 135 -141 389
-274 607 -319 129 -26 350 -37 510 -25 129 9 303 34 313 44 2 3 -19 11 -46 20
-216 64 -404 178 -477 289 -21 33 -17 33 75 2 161 -55 373 -75 650 -63 105 5
190 3 233 -3 38 -6 71 -8 74 -5 4 3 -1 6 -10 6 -26 0 -115 42 -209 99 -160 96
-266 203 -361 363 -48 82 -99 213 -95 247 3 25 4 24 30 -20 74 -126 317 -304
526 -383 152 -58 250 -78 407 -82 85 -2 128 0 109 5 -86 22 -255 219 -253 293
0 22 1 22 9 3 11 -27 50 -63 145 -130 144 -103 217 -131 425 -161 314 -45 606
33 970 261 56 35 229 203 282 273 52 70 109 190 138 290 13 45 26 82 29 82 7
0 9 -4 56 -93 16 -32 33 -57 37 -57 10 0 -2 29 -41 106 -17 33 -38 91 -46 129
-17 73 -34 114 -35 85 0 -9 -27 -46 -60 -83 -66 -75 -76 -69 -40 25 11 29 20
55 20 58 0 3 -47 -40 -104 -95 -103 -100 -232 -191 -287 -202 -26 -5 -29 -3
-29 19 0 49 72 242 113 301 22 32 8 36 -19 5 -50 -56 -276 -212 -389 -268
-133 -65 -255 -100 -255 -72 0 8 6 23 14 31 7 9 48 71 90 138 43 68 100 150
128 183 27 33 46 60 40 60 -5 0 -17 -10 -28 -21 -56 -62 -282 -189 -414 -233
-92 -30 -216 -56 -267 -56 -54 0 -113 11 -113 21 0 12 324 328 388 379 29 24
50 45 48 48 -3 3 -14 -1 -23 -9 -43 -34 -194 -100 -328 -142 -211 -66 -512
-73 -662 -16 -35 13 -28 28 25 50 66 27 112 53 227 127 97 62 285 199 285 207
0 2 -22 -7 -49 -20 -64 -33 -313 -99 -428 -115 -127 -17 -335 -8 -438 19 -80
21 -214 68 -227 80 -4 3 55 6 130 7 190 2 278 24 473 120 83 42 149 78 146 81
-3 3 -34 -4 -69 -16 -112 -36 -191 -44 -378 -38 -96 3 -191 11 -210 16 -19 5
-75 20 -125 32 -146 37 -330 119 -495 222 -80 50 -74 46 -69 51 2 3 31 -8 64
-24 162 -79 469 -78 750 1 64 18 267 86 309 104 42 18 44 31 2 15 -50 -19
-223 -12 -360 15 -313 60 -544 152 -801 320 -259 169 -451 337 -590 516 -115
148 -118 160 -12 55 270 -268 711 -436 1142 -436 55 0 138 7 185 16 47 9 121
19 165 23 l80 6 -60 18 c-249 72 -425 145 -560 232 -44 28 -100 63 -125 78
-79 46 -254 192 -345 289 -316 335 -532 692 -631 1043 -23 82 -15 95 11 20 99
-284 371 -603 679 -799 196 -125 535 -263 791 -321 98 -23 325 -46 325 -33 0
3 -18 24 -40 47 -145 153 -290 411 -353 632 -46 159 -60 276 -54 463 5 185 20
286 68 459 34 124 119 310 168 371 17 21 31 43 31 49 0 6 3 8 6 4 4 -3 -3 -22
-14 -41 -31 -52 -78 -207 -97 -321 -35 -205 6 -470 104 -664 17 -33 35 -61 40
-61 5 0 12 20 15 44 24 158 174 429 283 512 l38 29 -37 -43 c-46 -55 -101
-167 -128 -263 -31 -107 -38 -291 -15 -395 30 -141 139 -323 235 -393 l33 -24
-7 34 c-3 19 -9 105 -12 191 -8 179 -1 229 53 388 106 309 301 541 543 647
100 44 119 42 41 -4 -160 -95 -274 -254 -354 -494 -53 -157 -71 -292 -64 -474
9 -229 48 -371 144 -518 50 -77 227 -266 238 -255 3 3 -3 24 -14 46 -77 150
-92 409 -34 575 21 58 33 61 23 6 -8 -44 2 -161 20 -231 30 -115 101 -262 178
-363 25 -33 88 -116 139 -185 52 -69 105 -138 120 -155 17 -19 39 -75 64 -156
69 -227 140 -368 249 -497 84 -98 176 -168 305 -232 132 -65 207 -84 323 -83
88 1 97 4 191 48 55 25 116 49 137 52 86 14 183 157 206 306 12 82 9 124 -27
357 -17 110 -19 244 -5 321 14 76 59 161 95 179 l30 15 -62 3 c-85 4 -140 -21
-181 -80 -17 -25 -34 -57 -38 -73 l-7 -28 -12 24 c-24 44 11 149 69 212 14 15
26 30 26 32 0 10 -130 -5 -170 -20 -46 -16 -150 -75 -150 -85 0 -3 -7 -14 -16
-25 -13 -17 -16 -18 -24 -5 -5 8 -10 25 -10 38 0 28 40 109 75 150 29 34 109
83 168 102 21 7 36 14 34 17 -3 2 -31 11 -64 19 -116 31 -240 122 -298 219
-50 85 -69 218 -40 280 l13 30 1 -36 c1 -42 75 -154 137 -209 36 -31 169 -100
194 -100 7 0 -6 20 -28 45 -22 25 -53 76 -68 113 -25 60 -28 79 -29 182 0 103
3 122 27 178 25 60 67 132 78 132 3 0 3 -46 2 -103 -3 -85 0 -114 18 -167 29
-87 89 -177 164 -248 101 -94 182 -133 351 -171 50 -11 114 -29 144 -40 174
-65 308 -208 329 -352 6 -47 10 -52 41 -63 20 -6 45 -27 62 -51 32 -44 53
-132 40 -167 -8 -21 -8 -21 -14 4 -6 22 -17 30 -65 43 -111 33 -121 32 -190
-20 -131 -98 -170 -181 -159 -336 5 -74 9 -87 54 -161 34 -57 75 -105 142
-166 51 -48 101 -90 110 -93 21 -8 124 34 187 75 127 85 268 249 335 391 28
60 39 76 44 62 9 -21 -1 -94 -20 -148 -8 -21 -13 -39 -11 -39 2 0 24 27 50 60
81 102 163 308 192 477 24 142 15 373 -20 507 -28 108 -83 234 -131 301 -43
60 -161 161 -212 182 -55 23 -55 37 0 30 133 -19 234 -80 343 -206 72 -83 172
-249 184 -305 6 -29 8 -27 28 38 41 130 55 232 56 406 1 186 -8 233 -71 372
-113 249 -275 437 -448 520 l-60 29 65 -4 c174 -11 433 -184 568 -380 115
-167 166 -318 179 -529 2 -43 8 -78 13 -78 18 0 122 225 147 318 23 85 26 118
27 272 1 135 -3 194 -17 260 -30 139 -75 267 -142 405 -116 236 -271 407 -470
517 -62 34 -51 35 59 3 258 -75 530 -280 688 -521 126 -190 217 -411 239 -578
11 -88 8 -316 -6 -366 l-7 -25 21 25 c26 31 103 188 125 254 36 106 59 251 63
406 8 227 -24 398 -103 568 -23 50 -41 92 -39 92 2 0 25 -33 51 -72 168 -256
294 -697 294 -1033 0 -120 -28 -333 -59 -459 -80 -313 -217 -573 -444 -841
-60 -71 -185 -189 -209 -198 -7 -2 -10 -7 -6 -11 8 -9 69 10 221 68 250 96
446 215 569 344 192 203 254 285 332 439 97 195 149 350 150 455 0 31 5 54 10
51 5 -3 6 -63 3 -132 -10 -249 -117 -557 -321 -919 -122 -217 -304 -428 -494
-572 -18 -14 -68 -53 -110 -88 -142 -117 -283 -199 -422 -246 -39 -13 -74 -26
-77 -30 -4 -3 43 -6 103 -6 237 0 474 71 653 196 l66 47 -100 -102 c-199 -202
-359 -322 -560 -420 -247 -120 -360 -150 -594 -158 l-164 -6 34 -18 c89 -48
220 -91 313 -102 l97 -12 -23 -22 c-42 -40 -142 -93 -218 -117 -91 -29 -242
-49 -313 -41 -98 11 -182 28 -209 42 -16 7 -28 11 -28 8 0 -2 15 -28 33 -57
19 -29 53 -90 77 -136 52 -98 48 -107 -38 -106 -60 1 -165 38 -211 73 -20 16
-24 27 -23 62 3 68 -14 80 -22 16 -12 -103 -112 -303 -202 -402 -133 -148
-172 -182 -331 -286 -149 -99 -207 -133 -292 -174 -83 -40 -83 -40 -46 72 14
42 24 81 22 87 -6 17 -45 -109 -67 -218 -11 -54 -20 -100 -20 -101 0 -2 -8 -2
-17 0 -10 1 -12 0 -5 -2 7 -3 22 -19 35 -37 30 -43 191 -193 216 -201 11 -3
29 -1 40 4 38 21 58 11 130 -64 39 -41 79 -75 89 -75 10 0 36 -19 59 -42 38
-41 41 -47 51 -136 6 -51 8 -101 5 -110 -9 -23 -45 -72 -54 -72 -15 0 -17 31
-4 57 21 40 18 89 -7 140 -27 55 -48 67 -104 60 -24 -2 -45 -2 -47 2 -2 3 -2
0 0 -7 2 -8 6 -44 9 -80 6 -67 6 -67 -30 -101 -31 -30 -36 -32 -42 -17 -4 10
0 30 8 45 15 24 14 31 -18 111 -18 47 -36 94 -39 105 -6 17 -8 16 -21 -14 -8
-19 -33 -51 -55 -72 -40 -37 -41 -38 -36 -96 3 -32 7 -69 9 -83 4 -35 -23 -32
-41 4 -18 38 -31 208 -17 218 6 4 23 8 38 8 24 0 28 6 42 55 9 30 19 61 22 68
9 25 -327 177 -391 177 -8 0 -19 10 -24 23 -12 30 -51 309 -51 360 0 22 -3 37
-7 34 -9 -9 -5 -96 11 -205 l12 -93 -30 -26 c-17 -14 -45 -32 -63 -41 -36 -17
-35 -32 3 -32 13 0 24 -2 24 -5 0 -3 -33 -38 -73 -79 -40 -40 -90 -99 -110
-132 -52 -86 -61 -136 -46 -266 7 -69 10 -187 6 -326 -5 -190 -9 -228 -31
-307 -49 -178 -78 -234 -170 -334 -25 -26 -33 -39 -20 -33 11 6 26 18 34 26
20 25 30 19 24 -16 -41 -226 -179 -450 -383 -618 -51 -42 -53 -42 -38 -15 27
55 125 299 145 365 21 72 48 228 39 236 -3 3 -11 -12 -17 -33 -7 -21 -16 -40
-21 -43 -4 -3 -22 -57 -39 -120 -36 -134 -93 -303 -126 -377 -13 -28 -24 -54
-24 -57 0 -9 -85 -195 -151 -333 -108 -222 -312 -503 -447 -617 -57 -47 -128
-91 -197 -121 l-59 -27 85 84 c56 54 112 123 163 201 81 124 96 162 30 81
-188 -232 -577 -551 -906 -742 -236 -138 -512 -244 -800 -307 -190 -42 -324
-58 -449 -52 -100 4 -239 24 -251 35 -4 4 67 6 157 4 249 -5 369 14 635 100
250 81 579 274 835 489 102 86 363 351 441 449 224 280 398 602 598 1103 210
525 272 687 267 687 -3 -1 -33 -38 -66 -83 -90 -124 -288 -360 -395 -471 -146
-151 -449 -416 -659 -575 -46 -35 -134 -112 -195 -171 -134 -130 -325 -290
-421 -352 -95 -63 -269 -153 -341 -178 -134 -47 -299 -82 -409 -87 -60 -3
-107 -2 -103 1 3 4 36 14 73 21 118 25 264 91 400 180 80 53 143 110 133 120
-3 3 -36 -7 -74 -21 -375 -143 -678 -218 -939 -230 -159 -8 -165 -10 -394
-120 -215 -104 -312 -172 -450 -314 -68 -70 -111 -146 -111 -197 0 -30 5 -35
57 -62 83 -41 168 -60 330 -72 295 -23 538 19 857 148 190 77 329 150 641 336
220 131 391 246 655 441 232 171 588 500 737 681 113 137 263 338 357 478 43
65 81 115 83 113 10 -9 -79 -178 -141 -270 -263 -388 -640 -766 -1096 -1101
-178 -131 -405 -285 -419 -285 -6 0 -11 -4 -11 -10 0 -5 -4 -10 -8 -10 -5 0
-62 -32 -128 -72 -411 -248 -771 -405 -1154 -503 -245 -62 -331 -76 -505 -82
-161 -5 -208 -2 -385 27 -30 5 -76 12 -103 16 l-47 7 0 -182 0 -181 5120 0
5120 0 0 5120 0 5120 -5120 0 -5120 0 0 -3735z m5974 -1882 c-63 -148 -87
-222 -82 -259 3 -23 22 -36 143 -100 135 -70 175 -85 175 -64 0 14 54 40 83
40 13 0 50 -21 85 -50 55 -43 106 -66 137 -60 22 5 35 -1 35 -15 0 -8 14 -37
30 -65 26 -43 30 -61 30 -120 0 -39 -4 -70 -9 -70 -11 0 -21 25 -21 55 0 13
-11 36 -24 52 -14 16 -32 47 -41 70 -13 34 -20 39 -40 36 l-23 -5 24 -45 c13
-26 24 -63 24 -84 0 -20 5 -39 11 -41 17 -6 -24 -94 -49 -107 -35 -19 -42 -12
-17 14 28 27 32 62 10 91 -8 10 -15 31 -15 45 0 19 -9 29 -35 42 -34 16 -61
57 -90 136 -8 20 -14 29 -14 20 -1 -8 10 -42 23 -75 18 -43 22 -64 14 -77 -5
-10 -7 -25 -4 -33 10 -27 -58 -156 -79 -150 -17 4 -17 52 -1 66 19 15 21 76 5
167 l-11 64 -37 -7 c-20 -3 -42 -13 -48 -22 -13 -16 -39 -98 -45 -141 l-3 -23
-25 20 c-23 19 -24 21 -10 63 7 24 24 68 36 97 l23 52 -27 0 c-15 0 -81 10
-147 21 -66 11 -152 20 -190 20 l-71 -1 -22 78 c-13 42 -32 102 -43 132 -11
30 -21 59 -22 64 -1 5 75 61 169 125 95 64 187 128 205 143 19 15 35 27 36 28
0 0 -23 -57 -53 -127z m-1164 -2028 c-39 -480 -212 -823 -477 -950 -68 -33
-142 -47 -128 -25 3 6 13 10 22 10 61 0 190 106 270 222 140 203 238 494 269
803 4 39 16 90 28 115 l20 45 4 -40 c2 -22 -1 -103 -8 -180z"/>
<path d="M3140 2799 c-94 -56 -229 -107 -339 -129 -87 -18 -332 -50 -384 -50
-18 -1 -19 -2 -7 -10 9 -4 86 -12 173 -16 86 -4 157 -10 157 -14 0 -16 -78
-22 -430 -30 -429 -10 -512 -20 -765 -95 -203 -60 -524 -226 -525 -271 0 -7
-12 -15 -27 -19 -53 -13 0 -24 171 -37 323 -23 675 29 1041 154 180 61 443
182 540 248 22 15 65 40 95 56 30 16 90 54 132 85 42 31 101 71 130 88 48 28
120 81 108 80 -3 0 -34 -18 -70 -40z"/>
<path d="M0 1700 c0 -88 2 -160 4 -160 2 0 41 18 87 39 110 51 219 86 354 114
l110 22 -65 7 c-105 10 -270 54 -371 97 -52 23 -100 41 -106 41 -10 0 -13 -39
-13 -160z"/>
<path d="M1655 1785 c-149 -68 -292 -88 -635 -90 -200 -1 -268 -5 -315 -17
-33 -9 -127 -31 -210 -48 -154 -32 -332 -97 -443 -160 l-52 -30 0 -54 0 -53
68 -21 c111 -35 247 -47 365 -33 56 6 134 21 172 32 39 11 77 22 85 24 45 10
309 109 395 148 158 70 274 125 355 166 132 67 290 152 290 157 0 9 -27 1 -75
-21z"/>
</g>
</svg>
